<svg width="30" height="30" viewBox="0 0 30 30" fill="none" xmlns="http://www.w3.org/2000/svg">
<path d="M30 15C30 12.0333 29.1203 9.13319 27.472 6.66645C25.8238 4.19972 23.4811 2.27713 20.7403 1.14181C17.9994 0.00649929 14.9834 -0.290551 12.0736 0.288227C9.16393 0.867006 6.49119 2.29562 4.3934 4.3934C2.29562 6.49119 0.867006 9.16393 0.288227 12.0736C-0.290551 14.9834 0.00649929 17.9994 1.14181 20.7403C2.27713 23.4811 4.19972 25.8238 6.66645 27.472C9.13319 29.1203 12.0333 30 15 30C18.9771 29.9963 22.7903 28.4148 25.6025 25.6025C28.4148 22.7903 29.9963 18.9771 30 15ZM16.6667 26.5417V18.8889H19.4444C19.8865 18.8889 20.3104 18.7133 20.623 18.4007C20.9355 18.0882 21.1111 17.6643 21.1111 17.2222C21.1111 16.7802 20.9355 16.3563 20.623 16.0437C20.3104 15.7312 19.8865 15.5556 19.4444 15.5556H16.6667V12.7778C16.6667 12.3358 16.8423 11.9118 17.1548 11.5993C17.4674 11.2867 17.8913 11.1111 18.3333 11.1111H20.5556C20.9976 11.1111 21.4215 10.9355 21.7341 10.623C22.0466 10.3104 22.2222 9.88648 22.2222 9.44445C22.2222 9.00242 22.0466 8.5785 21.7341 8.26594C21.4215 7.95338 20.9976 7.77778 20.5556 7.77778H18.3333C17.0073 7.77778 15.7355 8.30457 14.7978 9.24225C13.8601 10.1799 13.3333 11.4517 13.3333 12.7778V15.5556H10.5556C10.1135 15.5556 9.68961 15.7312 9.37705 16.0437C9.06449 16.3563 8.88889 16.7802 8.88889 17.2222C8.88889 17.6643 9.06449 18.0882 9.37705 18.4007C9.68961 18.7133 10.1135 18.8889 10.5556 18.8889H13.3333V26.5417C10.414 26.1203 7.76266 24.6088 5.91285 22.3114C4.06303 20.014 3.15207 17.1012 3.36329 14.1592C3.57452 11.2172 4.89225 8.4644 7.0513 6.45481C9.21035 4.44522 12.0504 3.328 15 3.328C17.9496 3.328 20.7897 4.44522 22.9487 6.45481C25.1078 8.4644 26.4255 11.2172 26.6367 14.1592C26.8479 17.1012 25.937 20.014 24.0872 22.3114C22.2373 24.6088 19.586 26.1203 16.6667 26.5417Z" fill="#6A1B2C"/>
</svg>
