<svg width="34" height="30" viewBox="0 0 34 30" fill="none" xmlns="http://www.w3.org/2000/svg">
<path d="M16.2063 5.93761C16.2603 7.27367 16.0177 8.6051 15.4961 9.83632C15.0987 10.7799 14.3609 11.5395 13.4292 11.9642C11.0507 13.0297 8.11146 11.9568 7.30712 9.74573C6.57891 7.74369 6.88908 5.83328 7.9465 3.9902C8.5545 2.82578 9.40381 1.8044 10.4378 0.994184C10.879 0.670896 11.3602 0.406212 11.8695 0.20676C12.3425 -0.00770321 12.8739 -0.057018 13.3783 0.0667316C13.8827 0.190481 14.3309 0.480117 14.6509 0.889147C15.3297 1.70411 15.7755 2.68741 15.9413 3.73501C16.0671 4.46393 16.1207 5.20236 16.2063 5.93656" fill="#6A1B2C"/>
<path d="M18.0251 6.78639C18.0114 4.81536 18.2228 3.25285 19.0201 1.78867C19.1711 1.50613 19.3497 1.23929 19.5534 0.992085C20.4413 -0.0674478 21.6591 -0.257431 22.9262 0.459499C23.8676 0.987025 24.6883 1.70545 25.3357 2.5687C26.2563 3.73302 26.8847 5.10077 27.1686 6.55763C27.4406 7.8969 27.208 9.28945 26.5155 10.4676C25.844 11.5825 24.7313 12.1595 23.3203 12.3135C22.1431 12.4931 20.9419 12.2157 19.9627 11.5381C19.2066 10.9676 18.6578 10.1655 18.4001 9.25405C18.1423 8.45734 18.0154 7.62408 18.0244 6.78674" fill="#6A1B2C"/>
<path d="M25.2275 17.5745C25.2376 16.3374 25.4929 15.1146 25.9785 13.9767C26.4641 12.8389 27.1705 11.8086 28.0568 10.9455C28.3532 10.654 28.6938 10.4111 29.066 10.2258C29.4566 10.0167 29.9011 9.93025 30.3416 9.97759C30.7821 10.0249 31.1981 10.2039 31.5354 10.4912C32.1812 11.0346 32.681 11.7308 32.9893 12.5165C33.7872 14.2034 33.9193 16.1292 33.3594 17.9093C33.0668 18.8637 32.4917 19.7069 31.7099 20.3276C30.5199 21.2613 29.1463 21.3851 27.6917 20.9328C26.2561 20.487 25.4711 19.5659 25.2882 18.254C25.2529 17.989 25.2423 17.7207 25.2304 17.5745" fill="#6A1B2C"/>
<path d="M0 15.207C0.0233179 13.7887 0.439502 12.4047 1.20228 11.2089C1.45352 10.8409 1.74952 10.5056 2.08347 10.2106C2.49276 9.82464 3.02799 9.5999 3.59017 9.578C4.15235 9.5561 4.70344 9.73852 5.14152 10.0915C5.97088 10.7093 6.66184 11.4938 7.17 12.3946C8.00689 13.7315 8.46113 15.2724 8.48331 16.8495C8.46384 17.4204 8.34455 17.9834 8.13084 18.5131C7.66417 19.72 6.66244 20.4165 5.20532 20.5871C3.73128 20.7612 2.48 20.4267 1.52797 19.3771C0.941931 18.7512 0.526694 17.9852 0.32216 17.1526C0.171654 16.5118 0.105742 15.8562 0 15.207Z" fill="#6A1B2C"/>
<path d="M25.6417 20.9484C24.267 19.5033 22.6206 18.4243 21.0743 17.2122C20.9295 17.0983 20.785 16.9841 20.6422 16.8675C20.466 16.724 20.295 16.576 20.1258 16.4255C19.2254 15.6119 18.0657 15.144 16.8528 15.1051C15.6399 15.1442 14.4802 15.6121 13.5797 16.4255C13.4109 16.576 13.2396 16.724 13.0633 16.8675C12.9206 16.9841 12.7764 17.0983 12.6316 17.2122C11.0853 18.4257 9.43852 19.5054 8.06423 20.9484C5.65507 23.4827 6.52075 28.4744 10.4737 29.7045C12.7151 30.4021 14.6868 29.8371 16.3953 28.2879C16.5218 28.1579 16.6785 28.0611 16.8514 28.006C17.0244 28.061 17.1812 28.1578 17.3078 28.2879C19.0173 29.8371 20.9894 30.4028 23.2294 29.7045C27.1831 28.4744 28.048 23.4806 25.6389 20.9484" fill="#6A1B2C"/>
</svg>
