<svg width="395" height="673" viewBox="0 0 395 673" fill="none" xmlns="http://www.w3.org/2000/svg">
<mask id="path-1-inside-1_1_242" fill="white">
<path d="M59.805 182.5C48.3323 204.36 32.1627 223.41 12.4565 238.282C-2.61831 249.712 -21.4422 255.051 -40.2735 253.239C-88.1544 248.316 -125.252 204.016 -117.697 161.231C-110.862 122.486 -88.2624 94.7991 -54.3284 75.0879C-33.8614 62.0642 -10.8518 53.5558 13.1645 50.1307C23.208 49.0446 33.3499 49.2653 43.3367 50.7873C52.8822 51.7265 61.8352 55.8465 68.7577 62.4856C75.6803 69.1247 80.1708 77.8977 81.5081 87.3957C84.8438 106.697 82.8961 126.541 75.8713 144.825C71.1504 157.647 65.1924 169.951 59.7818 182.48"/>
</mask>
<path d="M12.4565 238.282L11.8542 237.483L11.8523 237.485L12.4565 238.282ZM-40.2735 253.239L-40.3758 254.233L-40.3693 254.234L-40.2735 253.239ZM-117.697 161.231L-116.712 161.404L-116.712 161.404L-117.697 161.231ZM-54.3284 75.0879L-53.8261 75.9526L-53.8086 75.9424L-53.7916 75.9316L-54.3284 75.0879ZM13.1645 50.1307L13.057 49.1365L13.0401 49.1383L13.0233 49.1407L13.1645 50.1307ZM43.3367 50.7873L43.186 51.7759L43.2123 51.7799L43.2387 51.7825L43.3367 50.7873ZM81.5081 87.3957L80.5179 87.5351L80.52 87.5506L80.5227 87.566L81.5081 87.3957ZM75.8713 144.825L74.9377 144.466L74.9329 144.479L75.8713 144.825ZM58.9195 182.035C47.5155 203.765 31.4425 222.701 11.8542 237.483L13.0589 239.08C32.8829 224.119 49.1492 204.956 60.6904 182.965L58.9195 182.035ZM11.8523 237.485C-3.02237 248.763 -21.5964 254.032 -40.1777 252.243L-40.3693 254.234C-21.288 256.071 -2.21425 250.661 13.0607 239.078L11.8523 237.485ZM-40.1712 252.244C-87.578 247.37 -124.149 203.52 -116.712 161.404L-118.682 161.057C-126.355 204.512 -88.7308 249.262 -40.3758 254.233L-40.1712 252.244ZM-116.712 161.404C-109.938 123.002 -87.5546 95.5445 -53.8261 75.9526L-54.8307 74.2232C-88.9702 94.0538 -111.787 121.971 -118.682 161.057L-116.712 161.404ZM-53.7916 75.9316C-33.4445 62.9842 -10.5699 54.5257 13.3057 51.1207L13.0233 49.1407C-11.1338 52.5859 -34.2783 61.1441 -54.8653 74.2442L-53.7916 75.9316ZM13.272 51.1249C23.2296 50.0481 33.2847 50.2669 43.186 51.7759L43.4873 49.7987C33.4151 48.2637 23.1864 48.0411 13.057 49.1365L13.272 51.1249ZM43.2387 51.7825C52.5612 52.6997 61.3048 56.7234 68.0656 63.2074L69.4499 61.7639C62.3655 54.9696 53.2033 50.7533 43.4346 49.7921L43.2387 51.7825ZM68.0656 63.2074C74.8263 69.6913 79.2118 78.2592 80.5179 87.5351L82.4983 87.2563C81.1298 77.5363 76.5343 68.5582 69.4499 61.7639L68.0656 63.2074ZM80.5227 87.566C83.8277 106.689 81.8979 126.35 74.9378 144.466L76.8048 145.183C83.8943 126.731 85.8599 106.704 82.4935 87.2254L80.5227 87.566ZM74.9329 144.479C70.2241 157.269 64.2978 169.5 58.8637 182.083L60.6998 182.876C66.0869 170.402 72.0767 158.025 76.8097 145.17L74.9329 144.479Z" fill="#E0D4CA" fill-opacity="0.3" mask="url(#path-1-inside-1_1_242)"/>
<path d="M10.9506 236.286L10.9461 236.29C-3.62613 247.339 -21.8217 252.501 -40.0251 250.751C-86.7172 245.946 -122.494 202.774 -115.235 161.665L-115.235 161.665C-108.551 123.775 -86.4929 96.6624 -53.0727 77.2496L-53.029 77.2242L-52.9863 77.1971C-32.8312 64.3718 -10.1737 55.9905 13.4754 52.6117C23.2903 51.554 33.2009 51.7714 42.96 53.2587L43.0257 53.2688L43.0919 53.2753C52.0796 54.1596 60.5093 58.0388 67.0273 64.2899C73.5453 70.5411 77.7734 78.8014 79.0325 87.7443L79.038 87.783L79.0446 87.8215C82.3035 106.678 80.4006 126.065 73.5376 143.928L73.5304 143.947L73.5235 143.966C70.2087 153.028 66.2891 161.784 62.3299 170.629C60.7302 174.203 59.124 177.791 57.5486 181.42C46.25 202.919 30.3377 221.655 10.9506 236.286Z" stroke="#E0D4CA" stroke-opacity="0.3" stroke-width="5" stroke-miterlimit="10"/>
<path d="M144.417 144.261L144.426 144.256L144.435 144.25C149.31 141.21 154.479 138.667 159.862 136.658C171.373 132.459 182.039 132.383 191.397 135.985C200.771 139.594 209.092 146.994 215.702 158.207L215.706 158.215C225.71 175.045 232.089 193.779 234.433 213.216L234.437 213.248L234.442 213.28C238.364 240.008 235.831 267.287 227.055 292.837L227.052 292.846L227.049 292.855C219.23 316.196 203.061 335.825 181.65 347.969C161.485 359.101 139.198 358.228 115.739 347.882L115.69 347.86L115.64 347.84C95.7647 340.083 79.6058 325.025 70.468 305.748C63.8766 290.157 62.5573 272.839 66.7115 256.429L66.7231 256.384L66.7329 256.338C69.906 241.473 75.469 227.221 83.2051 214.137L81.0531 212.865L83.226 214.101C101.138 182.619 118.693 160.007 144.417 144.261Z" stroke="#E0D4CA" stroke-opacity="0.3" stroke-width="5" stroke-miterlimit="10"/>
<path d="M203.691 374.437L203.691 374.437L203.705 374.434C210.884 372.568 218.313 371.849 225.716 372.303L225.753 372.305L225.789 372.306C233.464 372.555 240.886 375.11 247.088 379.639C253.289 384.168 257.982 390.46 260.555 397.695L260.557 397.702L260.56 397.71C265.73 411.972 267.253 427.3 264.992 442.301L264.985 442.343L264.98 442.385C260.955 477.125 247.825 507.235 221.906 530.499L221.889 530.514L221.873 530.529C208.752 542.742 192.237 550.69 174.507 553.325C147.839 557.129 125.501 546.882 106.823 526.664L106.822 526.663C97.6449 516.735 92.1756 506.54 90.0635 496.192C87.9538 485.855 89.1572 475.19 93.6079 464.247L93.6083 464.246C94.9488 460.946 96.5126 457.805 97.7367 455.347C98.1544 454.508 98.5325 453.748 98.8487 453.089C110.256 433.721 125.384 416.803 143.36 403.308C161.365 389.792 181.871 379.979 203.691 374.437Z" stroke="#E0D4CA" stroke-opacity="0.3" stroke-width="5" stroke-miterlimit="10"/>
<path d="M27.4995 399.124L27.504 399.136C28.7257 402.304 29.9731 405.5 31.2506 408.673C34.9354 417.857 38.8089 426.907 42.6695 435.927C53.0805 460.251 63.3977 484.356 69.6686 510.275C84.4136 571.339 25.9192 641.43 -46.7331 625.032L-46.7336 625.032C-88.0248 615.72 -113.717 589.22 -126.523 549.432C-127.454 545.815 -129.257 542.481 -131.776 539.721L-132.311 539.135L-133.087 538.965C-136.736 538.165 -140.524 538.271 -144.122 539.271C-184.988 548.072 -220.773 539.078 -249.488 507.971L-249.488 507.971C-300.021 453.248 -268.565 367.552 -208.305 349.785L-208.305 349.785C-182.608 342.207 -156.467 339.087 -130.098 335.94C-120.46 334.79 -110.791 333.636 -101.102 332.259L-101.092 332.257L-101.083 332.256C-100.092 332.107 -99.0989 331.961 -98.1034 331.814C-95.7315 331.465 -93.3479 331.114 -90.9671 330.727C-86.7775 330.052 -82.6328 329.258 -78.5186 328.401L-78.5058 328.398C-57.1969 323.841 -34.9635 326.971 -15.742 337.232C-5.24815 343.767 3.82714 352.342 10.9456 362.45L10.9474 362.453C16.2881 370.017 20.4478 378.349 23.2839 387.163L23.2872 387.174L23.2907 387.184C24.6144 391.178 25.9942 395.161 27.4995 399.124Z" stroke="#E0D4CA" stroke-opacity="0.3" stroke-width="5" stroke-miterlimit="10"/>
</svg>
