<svg width="365" height="422" viewBox="0 0 365 422" fill="none" xmlns="http://www.w3.org/2000/svg">
<g style="mix-blend-mode:multiply" opacity="0.4">
<path d="M14.0687 143.984C16.7179 154 17.1168 164.478 15.2368 174.667C13.8134 182.471 9.50662 189.455 3.17187 194.23C-13.0323 206.28 -37.0659 203.095 -46.8596 187.72C-55.7267 173.797 -56.5853 158.826 -51.6787 143.11C-49.033 133.282 -44.322 124.131 -37.86 116.268C-35.065 113.082 -31.8686 110.273 -28.3507 107.909C-25.1326 105.494 -21.196 104.229 -17.173 104.319C-13.15 104.409 -9.27381 105.848 -6.16675 108.405C0.335128 113.431 5.35741 120.121 8.3686 127.767C10.5433 133.07 12.1874 138.566 14.067 143.976" fill="#E0D4CA"/>
<path d="M29.2504 147.353C25.8398 132.467 24.8182 120.292 28.3929 107.879C29.0605 105.489 29.9642 103.171 31.0905 100.959C36.0292 91.4548 44.9223 87.9748 55.7101 91.2721C63.7157 93.6832 71.1291 97.7408 77.4749 103.185C86.3914 110.448 93.4399 119.739 98.0312 130.283C102.335 139.958 102.912 150.882 99.6502 160.956C96.4413 170.515 88.9921 176.747 78.5776 180.279C69.9743 183.612 60.422 183.529 51.8782 180.046C45.2019 176.999 39.7054 171.852 36.2271 165.39C32.9401 159.796 30.5823 153.706 29.2456 147.357" fill="#E0D4CA"/>
<path d="M101.831 216.875C99.8315 207.501 99.7108 197.823 101.475 188.401C103.24 178.979 106.855 170.001 112.111 161.985C113.864 159.283 116.033 156.874 118.537 154.848C121.141 152.611 124.359 151.211 127.77 150.83C131.182 150.45 134.629 151.105 137.662 152.713C143.459 155.74 148.408 160.168 152.058 165.594C160.923 177.016 165.154 191.361 163.905 205.766C163.293 213.476 160.356 220.82 155.484 226.826C148.049 235.885 137.866 239.126 126.104 238.145C114.497 237.181 107.014 231.531 103.429 221.914C102.718 219.968 102.188 217.957 101.852 216.871" fill="#E0D4CA"/>
<path d="M110.623 241.702C97.8008 233.076 83.5368 227.677 69.8065 221.102C68.5197 220.484 67.235 219.862 65.9594 219.219C64.3856 218.43 62.8442 217.597 61.3119 216.742C53.1361 212.099 43.5783 210.505 34.3382 212.245C25.2295 214.576 17.2419 220.061 11.7947 227.724C10.7701 229.146 9.72265 230.553 8.6302 231.934C7.7461 233.056 6.84721 234.162 5.94238 235.266C-3.71845 247.04 -14.3639 257.969 -22.3386 271.19C-36.3107 294.402 -21.3882 330.709 10.5772 333.382C28.702 334.899 42.6689 327.317 52.9933 312.733C53.7327 311.537 54.7551 310.541 55.9704 309.834C57.3715 309.96 58.72 310.43 59.8962 311.202C75.4262 320.052 91.2928 321.023 107.065 311.983C134.909 296.045 133.074 256.819 110.602 241.706" fill="#E0D4CA"/>
<path d="M279.137 87.409C277.332 89.3887 275.112 90.9444 272.635 91.9643C270.739 92.7491 268.618 92.7924 266.693 92.0856C261.803 90.2544 259.125 84.5862 261.093 80.3028C262.875 76.4245 266.007 74.139 270.11 73.0019C272.616 72.1988 275.264 71.9395 277.879 72.2411C278.963 72.4017 280.021 72.7023 281.028 73.1353C282.004 73.4958 282.83 74.1739 283.375 75.0605C283.919 75.9472 284.15 76.9911 284.03 78.0246C283.85 80.1418 283.1 82.1709 281.861 83.8971C281.014 85.113 280.05 86.2407 279.139 87.4075" fill="#E0D4CA"/>
<path d="M280.533 91.1797C283.29 88.3517 285.791 86.423 288.989 85.4595C289.602 85.2694 290.233 85.1407 290.871 85.0754C293.628 84.816 295.631 86.2602 296.427 89.0663C297.026 91.1437 297.183 93.3232 296.89 95.4651C296.562 98.4206 295.532 101.255 293.885 103.73C292.386 106.022 290.094 107.678 287.448 108.382C284.921 109.025 282.523 108.28 280.295 106.513C278.365 105.111 277.044 103.024 276.603 100.679C276.329 98.8016 276.676 96.8858 277.593 95.2242C278.347 93.7258 279.34 92.3597 280.532 91.1792" fill="#E0D4CA"/>
<path d="M275.604 116.695C277.36 114.947 279.446 113.564 281.741 112.626C284.035 111.689 286.492 111.216 288.971 111.234C289.804 111.236 290.631 111.369 291.422 111.629C292.273 111.882 293.029 112.384 293.59 113.072C294.151 113.76 294.491 114.601 294.567 115.485C294.722 117.169 294.454 118.865 293.787 120.419C292.548 123.946 290.025 126.876 286.72 128.624C284.959 129.572 282.952 129.964 280.964 129.747C277.953 129.402 275.822 127.644 274.386 124.951C272.968 122.294 273.146 119.876 274.733 117.749C275.056 117.322 275.419 116.925 275.608 116.699" fill="#E0D4CA"/>
<path d="M242.99 77.7943C245.02 75.8062 247.562 74.4202 250.334 73.7904C251.21 73.6199 252.104 73.5589 252.995 73.6089C254.122 73.6353 255.201 74.0688 256.033 74.8293C256.865 75.5898 257.393 76.6258 257.52 77.7457C257.832 79.7941 257.712 81.885 257.167 83.8842C256.477 86.9678 254.955 89.8031 252.765 92.0817C251.933 92.8678 250.97 93.5021 249.92 93.956C247.555 95.0185 245.147 94.6003 242.831 92.7913C240.485 90.9636 239.173 88.7248 239.295 85.8884C239.341 84.1713 239.828 82.495 240.709 81.0205C241.397 79.8954 242.226 78.8684 242.99 77.7943Z" fill="#E0D4CA"/>
<path d="M271.443 122.086C271.519 118.091 270.692 114.235 270.196 110.33C270.15 109.964 270.105 109.598 270.066 109.23C270.017 108.778 269.981 108.326 269.952 107.873C269.815 105.446 268.821 103.146 267.148 101.383C265.364 99.7303 263.053 98.7638 260.624 98.6546C260.172 98.6313 259.719 98.601 259.266 98.5573C258.898 98.5225 258.532 98.4822 258.165 98.4404C254.253 97.9921 250.386 97.2114 246.396 97.3323C239.394 97.5507 233.597 105.883 237.498 113.203C239.709 117.353 243.315 119.325 247.931 119.523C248.294 119.516 248.654 119.599 248.978 119.764C249.147 120.086 249.234 120.445 249.231 120.808C249.486 125.423 251.499 129.007 255.674 131.166C263.04 134.981 271.306 129.083 271.439 122.082" fill="#E0D4CA"/>
</g>
</svg>
