<svg width="461" height="474" viewBox="0 0 461 474" fill="none" xmlns="http://www.w3.org/2000/svg">
<mask id="path-1-inside-1_1_39" fill="white">
<path d="M217.404 118.542C224.856 132.741 235.359 145.115 248.159 154.774C257.951 162.199 270.178 165.667 282.41 164.49C313.511 161.292 337.607 132.517 332.7 104.726C328.26 79.5601 313.581 61.5762 291.539 48.7728C278.245 40.3134 263.299 34.7868 247.7 32.5621C241.176 31.8566 234.588 31.9999 228.101 32.9885C221.901 33.5986 216.086 36.2747 211.589 40.5871C207.093 44.8995 204.176 50.598 203.307 56.7673C201.141 69.3041 202.406 82.1936 206.969 94.0699C210.035 102.399 213.905 110.39 217.42 118.529"/>
</mask>
<path d="M248.159 154.774L248.762 153.976L248.764 153.978L248.159 154.774ZM282.41 164.49L282.512 165.484L282.506 165.485L282.41 164.49ZM332.7 104.726L331.715 104.9L331.715 104.9L332.7 104.726ZM291.539 48.7728L291.037 49.6375L291.019 49.6274L291.002 49.6165L291.539 48.7728ZM247.7 32.5621L247.807 31.5679L247.824 31.5697L247.841 31.5721L247.7 32.5621ZM228.101 32.9885L228.252 33.9771L228.226 33.9811L228.199 33.9837L228.101 32.9885ZM203.307 56.7673L204.298 56.9067L204.295 56.9222L204.293 56.9376L203.307 56.7673ZM206.969 94.0699L207.902 93.7113L207.907 93.7244L206.969 94.0699ZM218.29 118.077C225.673 132.146 236.08 144.405 248.762 153.976L247.557 155.573C234.639 145.824 224.04 133.336 216.519 119.006L218.29 118.077ZM248.764 153.978C258.355 161.25 270.332 164.648 282.314 163.494L282.506 165.485C270.024 166.687 257.547 163.147 247.555 155.571L248.764 153.978ZM282.308 163.495C312.934 160.346 336.504 132.022 331.715 104.9L333.685 104.552C338.71 133.013 314.087 162.238 282.512 165.484L282.308 163.495ZM331.715 104.9C327.336 80.0758 312.873 62.3215 291.037 49.6375L292.041 47.9081C314.289 60.8309 329.185 79.0445 333.685 104.553L331.715 104.9ZM291.002 49.6165C277.828 41.2334 263.017 35.7567 247.558 33.5521L247.841 31.5721C263.581 33.8169 278.662 39.3933 292.076 47.9292L291.002 49.6165ZM247.592 33.5563C241.154 32.8601 234.653 33.0015 228.252 33.9771L227.951 31.9999C234.523 30.9983 241.197 30.8531 247.807 31.5679L247.592 33.5563ZM228.199 33.9837C222.222 34.5718 216.616 37.1517 212.281 41.3089L210.897 39.8654C215.555 35.3978 221.58 32.6254 228.003 31.9933L228.199 33.9837ZM212.281 41.3089C207.947 45.4661 205.135 50.9594 204.298 56.9067L202.317 56.6279C203.217 50.2365 206.239 44.333 210.897 39.8654L212.281 41.3089ZM204.293 56.9376C202.157 69.2967 203.404 82.0034 207.902 93.7113L206.035 94.4286C201.408 82.3839 200.125 69.3116 202.322 56.597L204.293 56.9376ZM207.907 93.7244C210.961 102.02 214.8 109.94 218.338 118.132L216.501 118.925C213.011 110.841 209.109 102.777 206.03 94.4154L207.907 93.7244Z" fill="#E0D4CA" fill-opacity="0.6" mask="url(#path-1-inside-1_1_39)"/>
<path d="M249.665 152.779L249.67 152.782C258.959 159.826 270.558 163.117 282.161 162.002C312.073 158.923 334.849 131.276 330.238 105.161L330.238 105.161C325.949 80.8493 311.811 63.4395 290.283 50.9346L290.24 50.9092L290.197 50.882C277.215 42.621 262.621 37.2215 247.389 35.043C241.094 34.3659 234.737 34.5061 228.478 35.46L228.412 35.47L228.346 35.4765C222.704 36.0317 217.412 38.467 213.32 42.3914C209.228 46.3159 206.573 51.5016 205.783 57.1159L205.777 57.1546L205.771 57.1931C203.681 69.2855 204.901 81.718 209.302 93.1733L209.31 93.1922L209.317 93.2111C211.458 99.0667 213.985 104.71 216.551 110.444C217.589 112.762 218.633 115.094 219.661 117.461C226.939 131.3 237.184 143.36 249.665 152.779Z" stroke="#E0D4CA" stroke-opacity="0.6" stroke-width="5" stroke-miterlimit="10"/>
<path d="M201.451 139.538L201.44 139.52L201.43 139.501C189.825 119.105 178.513 104.566 161.988 94.4512L161.979 94.4458L161.97 94.4403C158.854 92.4972 155.551 90.8715 152.11 89.5874C144.8 86.9219 138.094 86.8942 132.245 89.1459C126.378 91.4043 121.113 96.056 116.897 103.207L116.893 103.215C110.457 114.042 106.354 126.094 104.845 138.598L104.842 138.63L104.837 138.662C102.31 155.885 103.942 173.462 109.597 189.926L109.6 189.935L109.603 189.944C114.612 204.899 124.971 217.475 138.689 225.257C151.487 232.32 165.663 231.803 180.719 225.163L180.768 225.141L180.819 225.121C193.514 220.166 203.837 210.55 209.678 198.239C213.879 188.292 214.719 177.245 212.069 166.777L212.057 166.731L212.048 166.685C210.006 157.123 206.428 147.954 201.451 139.538Z" stroke="#E0D4CA" stroke-opacity="0.6" stroke-width="5" stroke-miterlimit="10"/>
<path d="M123.728 244.063L123.715 244.059C119.141 242.87 114.408 242.412 109.691 242.702L109.655 242.704L109.619 242.705C104.81 242.861 100.159 244.462 96.2728 247.3C92.3869 250.137 89.4462 254.08 87.8342 258.614L87.8316 258.621L87.829 258.628C84.5206 267.755 83.5457 277.564 84.9929 287.163L84.9993 287.205L85.0043 287.248C87.5996 309.644 96.0511 328.989 112.698 343.93L112.715 343.945L112.731 343.961C121.123 351.772 131.686 356.856 143.026 358.542C160.003 360.963 174.24 354.466 186.221 341.497L186.221 341.496C192.097 335.14 195.558 328.658 196.892 322.123C198.223 315.6 197.471 308.848 194.636 301.879L194.636 301.878C193.779 299.768 192.788 297.779 191.996 296.187C191.727 295.646 191.481 295.152 191.27 294.714C183.921 282.247 174.18 271.355 162.606 262.667C151.003 253.957 137.789 247.634 123.728 244.062L123.728 244.063Z" stroke="#E0D4CA" stroke-opacity="0.6" stroke-width="5" stroke-miterlimit="10"/>
<path d="M315.198 215.687C312.46 215.245 309.754 214.727 307.073 214.169L307.06 214.166C293.431 211.251 279.211 213.249 266.914 219.806C260.208 223.987 254.408 229.47 249.857 235.932L249.855 235.934C246.437 240.775 243.775 246.107 241.96 251.748L241.957 251.758L241.954 251.769C241.091 254.37 240.191 256.97 239.207 259.56L239.203 259.571C238.408 261.632 237.596 263.712 236.764 265.778C234.355 271.785 231.828 277.687 229.315 283.559C222.562 299.336 215.904 314.893 211.849 331.651C202.413 370.728 239.899 415.629 286.413 405.131L286.413 405.131C312.886 399.161 329.353 382.209 337.591 356.636C338.233 354.158 339.471 351.874 341.197 349.982L341.733 349.395L342.509 349.225C345.01 348.678 347.606 348.748 350.073 349.429C376.342 355.08 399.25 349.299 417.66 329.355L417.66 329.355C450.012 294.321 429.868 239.411 391.306 228.041L391.306 228.041C374.691 223.141 357.819 221.128 340.715 219.086C334.44 218.337 328.134 217.584 321.797 216.684L321.788 216.683L321.778 216.681C321.14 216.586 320.497 216.491 319.852 216.396C318.309 216.168 316.751 215.939 315.198 215.687ZM315.198 215.687C315.199 215.687 315.199 215.687 315.2 215.687L315.598 213.219M315.198 215.687C315.198 215.686 315.197 215.686 315.197 215.686L315.598 213.219M315.598 213.219C317.132 213.468 318.661 213.693 320.197 213.92C320.846 214.015 321.497 214.111 322.149 214.209L247.813 234.492C252.572 227.734 258.643 222.003 265.663 217.64C278.497 210.774 293.349 208.677 307.583 211.721C310.239 212.275 312.907 212.785 315.598 213.219Z" stroke="#E0D4CA" stroke-opacity="0.6" stroke-width="5" stroke-miterlimit="10"/>
</svg>
