<svg width="50" height="61" viewBox="0 0 50 61" fill="none" xmlns="http://www.w3.org/2000/svg">
<path d="M4.96757 23.9053C4.8876 25.0529 5.11587 26.201 5.63141 27.2442C5.95389 27.9194 6.47417 28.4945 7.13156 28.9025C7.49663 29.1063 7.90731 29.2273 8.33094 29.2558C8.75456 29.2844 9.17944 29.2197 9.57177 29.067C10.32 28.8076 10.7328 28.2332 11.1617 27.6626C11.9487 26.6167 12.2689 25.4122 12.5689 24.1879C12.8186 23.1513 13.2271 22.1541 13.7816 21.2277C14.0626 20.7136 14.3823 20.219 14.7383 19.7478C15.0316 19.3535 15.3871 19.0034 15.7924 18.7095C15.8788 18.6443 15.9545 18.5676 16.017 18.4817C16.1437 18.3295 16.2218 18.1696 16.0354 18.0064C15.9999 17.9718 15.9572 17.9445 15.9098 17.9263C15.8625 17.9081 15.8116 17.8994 15.7604 17.9007C15.7093 17.902 15.659 17.9133 15.6128 17.9339C15.5665 17.9545 15.5254 17.984 15.492 18.0203C14.765 18.6189 14.1312 19.3105 13.6091 20.0746C12.886 21.2016 12.316 22.4092 11.9123 23.6691C11.7025 24.3355 11.6028 25.0267 11.3733 25.6905C11.0603 26.5561 10.5755 27.3582 9.94456 28.0544C9.59635 28.398 9.12007 28.6017 8.61547 28.6229C8.11087 28.6441 7.61709 28.4812 7.23756 28.1683C6.3759 27.3426 5.85991 26.2531 5.78412 25.0992C5.67328 24.0809 5.71866 23.0529 5.91886 22.0467C6.2224 20.4179 7.07031 18.9221 8.33976 17.7761C8.83054 17.3686 9.38725 17.0371 9.98903 16.7939C10.7918 16.4157 11.6538 16.1605 12.5424 16.0377C12.8451 16.0154 13.149 16.0099 13.4524 16.0213C13.624 16.0213 13.7978 16.0107 13.8216 15.8159C13.8454 15.621 13.7017 15.5443 13.5112 15.5051C13.0133 15.4168 12.5015 15.4229 12.0061 15.5232C10.6057 15.7423 9.28227 16.2758 8.14843 17.0782C7.06039 17.8858 6.22515 18.9547 5.73112 20.1716C5.20412 21.3536 4.94412 22.6254 4.96757 23.9066" fill="#6A1B2C"/>
<path d="M44.7835 24.0045C44.8636 25.1525 44.6353 26.301 44.1196 27.3446C43.7971 28.0197 43.2768 28.5947 42.6195 29.0025C42.2544 29.2064 41.8438 29.3274 41.4201 29.3561C40.9965 29.3847 40.5716 29.3201 40.1793 29.1674C39.4305 28.9076 39.0182 28.3332 38.5893 27.763C37.8019 26.7167 37.4817 25.5126 37.1821 24.2883C36.9321 23.2517 36.5236 22.2545 35.9694 21.3277C35.6884 20.8137 35.3687 20.3191 35.0127 19.8478C34.7198 19.4535 34.3646 19.1034 33.9595 18.8095C33.8733 18.7441 33.7977 18.6674 33.7349 18.5817C33.6087 18.4299 33.5301 18.2701 33.7169 18.1064C33.7524 18.0718 33.7951 18.0446 33.8425 18.0264C33.8898 18.0082 33.9406 17.9994 33.9917 18.0007C34.0428 18.0021 34.0931 18.0134 34.1393 18.034C34.1855 18.0546 34.2266 18.084 34.26 18.1203C34.9861 18.7186 35.6193 19.4095 36.141 20.1729C36.8641 21.2999 37.4342 22.5075 37.8379 23.7674C38.0472 24.4334 38.1473 25.1246 38.3768 25.7884C38.6903 26.654 39.1752 27.4562 39.806 28.1527C40.1543 28.4962 40.6306 28.6999 41.1352 28.721C41.6398 28.7422 42.1335 28.5792 42.513 28.2662C43.3745 27.4404 43.8904 26.3509 43.9665 25.1971C44.0771 24.1789 44.0317 23.1511 43.8317 22.145C43.5285 20.5162 42.6807 19.0204 41.4113 17.8745C40.9205 17.4666 40.3636 17.1349 39.7616 16.8918C38.9589 16.5136 38.0971 16.2584 37.2086 16.1356C36.9059 16.1135 36.602 16.108 36.2986 16.1192C36.1271 16.1192 35.9532 16.1086 35.929 15.9142C35.9047 15.7198 36.0494 15.6422 36.2394 15.603C36.7375 15.5147 37.2494 15.5208 37.7449 15.6211C39.1453 15.8404 40.4687 16.3738 41.6026 17.1761C42.6905 17.9838 43.5258 19.0527 44.0199 20.2695C44.5467 21.4516 44.8067 22.7233 44.7835 24.0045Z" fill="#6A1B2C"/>
<path d="M30.1876 22.9104C29.9197 22.9057 29.6554 22.8507 29.4105 22.7485C29.1655 22.6464 28.9449 22.4993 28.7615 22.3158C28.5781 22.1323 28.4357 21.9161 28.3427 21.6801C28.2496 21.4441 28.2079 21.193 28.2199 20.9416C28.2319 20.6902 28.2974 20.4436 28.4125 20.2164C28.5276 19.9891 28.6901 19.7858 28.8902 19.6185C29.0903 19.4511 29.3242 19.3231 29.5778 19.2419C29.8315 19.1608 30.0999 19.1281 30.3673 19.146C30.8892 19.1808 31.3761 19.4056 31.7241 19.7725C32.0721 20.1395 32.2538 20.6195 32.2304 21.1104C32.2069 21.6012 31.9803 22.0641 31.5987 22.4003C31.2171 22.7366 30.7108 22.9196 30.1876 22.9104Z" fill="#6A1B2C"/>
<path d="M19.3246 19.21C19.5886 19.207 19.8506 19.253 20.0955 19.3454C20.3405 19.4378 20.5636 19.5748 20.752 19.7485C20.9404 19.9222 21.0903 20.1291 21.1932 20.3574C21.2961 20.5857 21.3499 20.8308 21.3516 21.0787C21.3565 21.3285 21.3084 21.5768 21.2102 21.809C21.112 22.0412 20.9656 22.2528 20.7796 22.4314C20.5935 22.61 20.3715 22.7522 20.1265 22.8495C19.8814 22.9469 19.6182 22.9975 19.3521 22.9985C19.086 22.9994 18.8224 22.9508 18.5765 22.8552C18.3306 22.7597 18.1074 22.6192 17.9199 22.4419C17.7324 22.2647 17.5842 22.0542 17.4841 21.8227C17.384 21.5912 17.3339 21.3433 17.3367 21.0935C17.3346 20.5963 17.5428 20.1186 17.9156 19.7655C18.2883 19.4123 18.7951 19.2125 19.3246 19.21Z" fill="#6A1B2C"/>
<path d="M31.8107 27.404C31.5669 27.364 31.491 27.5259 31.4514 27.7191C31.4051 28.0163 31.3212 28.3072 31.2017 28.5858C30.8935 29.2098 30.3951 29.734 29.7694 30.0919C29.1438 30.4498 28.4191 30.6253 27.6871 30.5962C27.1365 30.5793 26.6058 30.3982 26.1722 30.079C25.7386 29.7598 25.4246 29.3192 25.2757 28.8211C25.248 28.7551 25.2426 28.6827 25.2601 28.6137C25.2776 28.5447 25.3172 28.4824 25.3736 28.4352C25.6651 28.1822 25.9453 27.9207 26.2579 27.6887C26.8863 27.2804 27.4863 26.835 28.0545 26.3552C28.2655 26.1341 28.4135 25.8664 28.4846 25.5771C28.5557 25.2878 28.5477 24.9863 28.4612 24.7007C28.3748 24.4152 28.2127 24.1548 27.9902 23.9439C27.7677 23.7329 27.4919 23.5784 27.1886 23.4945C26.8221 23.3841 26.4306 23.3689 26.0557 23.4506C25.6808 23.5323 25.3364 23.7078 25.0592 23.9584C24.8795 24.1077 24.7897 24.0706 24.6397 23.9428C24.4285 23.7635 24.1806 23.6264 23.9112 23.5399C23.6418 23.4533 23.3565 23.4191 23.0726 23.4394C22.7886 23.4596 22.5121 23.5339 22.2597 23.6576C22.0073 23.7813 21.7843 23.952 21.6043 24.1592C21.4046 24.4467 21.2872 24.7778 21.2636 25.1204C21.24 25.463 21.3109 25.8055 21.4696 26.1148C21.7195 26.4188 22.0153 26.6869 22.3477 26.9106C23.0339 27.3535 23.6859 27.8414 24.2988 28.3707C24.3522 28.4126 24.3907 28.4689 24.4091 28.532C24.4275 28.5951 24.4249 28.662 24.4016 28.7237C24.2469 29.2524 23.8986 29.7129 23.418 30.0243C23.0536 30.2521 22.6415 30.4041 22.2095 30.4704C21.7775 30.5367 21.3353 30.5156 20.9127 30.4085C20.2653 30.2641 19.6735 29.9535 19.2034 29.5114C18.7332 29.0693 18.4033 28.5131 18.2506 27.9051C18.1836 27.5512 18.0453 27.4057 17.8158 27.4471C17.6092 27.4842 17.5351 27.6807 17.6069 28.0227C17.718 28.53 17.9441 29.0089 18.2699 29.4267C18.6025 29.8723 19.0295 30.2486 19.5241 30.5322C20.0187 30.8157 20.5703 31.0003 21.1444 31.0745C21.7836 31.1719 21.7885 31.1432 21.793 31.8159C21.7836 32.2299 21.8481 32.6424 21.9839 33.0364C22.195 33.8923 22.7268 34.6485 23.4822 35.167C23.942 35.4812 24.5078 35.6275 25.0741 35.5788C25.6404 35.5301 26.1684 35.2896 26.5598 34.9022C27.512 34.0427 27.8174 32.9352 27.8663 31.7433C27.8861 31.2372 27.8717 31.2372 28.4129 31.1976C28.443 31.1969 28.473 31.1948 28.5028 31.1913C29.1496 31.0924 29.7649 30.8595 30.3038 30.5093C30.8427 30.1591 31.2916 29.7005 31.6181 29.1669C31.8736 28.7596 32.0321 28.305 32.0825 27.8346C32.1045 27.633 32.0587 27.4454 31.8107 27.4053M26.2135 34.3552C26.0374 34.5577 25.8133 34.7188 25.5591 34.8254C25.3048 34.9321 25.0276 34.9814 24.7494 34.9694C24.4712 34.9574 24.1999 34.8844 23.9572 34.7563C23.7145 34.6282 23.507 34.4485 23.3515 34.2316C22.7455 33.5005 22.4261 32.5958 22.4469 31.6695V31.6409C22.4469 31.1044 22.4492 31.1145 22.9783 30.9315C23.2338 30.8468 23.4769 30.7321 23.7019 30.5903C23.8968 30.4638 23.9511 30.5329 24.0311 30.6881C24.282 31.2165 24.4306 31.7826 24.4699 32.3599C24.4901 32.5484 24.5148 32.737 24.5287 32.9263C24.5427 33.1157 24.6293 33.2506 24.8364 33.2401C25.0435 33.2296 25.1189 33.0689 25.1149 32.896C25.1199 32.3559 25.2061 31.8192 25.3709 31.3018C25.4265 31.082 25.5135 30.8704 25.6296 30.6725C25.697 30.5633 25.7477 30.5498 25.8605 30.6304C26.2093 30.8723 26.6086 31.0423 27.0323 31.1293C27.0822 31.136 27.1274 31.1608 27.1581 31.1984C27.1889 31.236 27.2027 31.2834 27.1967 31.3305C27.2546 32.4489 27.0552 33.5045 26.2135 34.3569" fill="#6A1B2C"/>
<path d="M39.4036 8.07738C39.382 7.95546 39.3341 7.83899 39.2627 7.73515C39.1913 7.63131 39.0981 7.5423 38.9886 7.47362C38.8792 7.40493 38.756 7.35803 38.6265 7.33581C38.497 7.31358 38.3641 7.3165 38.2358 7.34439C37.9964 7.40891 37.7938 7.55976 37.6724 7.76401C37.5509 7.96827 37.5205 8.20934 37.5877 8.43459C37.6205 8.54762 37.665 8.65052 37.5796 8.75722C37.154 9.31367 36.5926 9.76632 35.9425 10.0773C34.9787 10.5097 33.8943 10.6457 32.8434 10.4661C32.6018 10.4513 32.3666 10.3876 32.1537 10.2794C31.9408 10.1712 31.7554 10.0211 31.61 9.83941C31.4049 9.57214 31.2406 9.2793 31.1218 8.96936C31.0526 8.77072 31.0419 8.66317 31.2839 8.54762C31.4963 8.44102 31.6556 8.26032 31.7275 8.04448C31.7993 7.82863 31.7779 7.59492 31.668 7.39373C31.5589 7.18383 31.3659 7.0229 31.131 6.94596C30.8961 6.86903 30.6384 6.88233 30.4139 6.98296C30.1984 7.07076 30.0275 7.2337 29.9374 7.43746C29.8472 7.64122 29.8448 7.86988 29.9307 8.07527C30.1269 8.40254 29.9531 8.53033 29.7389 8.69523C29.5189 8.86216 29.2704 8.99305 29.0041 9.08238C28.4543 9.27006 28.1732 9.16673 27.9531 8.6927C27.6693 8.04998 27.5883 7.34423 27.7195 6.65948C27.7734 6.21568 27.9968 5.80527 28.3483 5.50434C28.5792 5.30991 28.5644 5.1332 28.3375 4.89155C27.9531 4.48246 27.561 4.0797 27.1729 3.67356C26.6097 3.08523 26.0442 2.49817 25.4864 1.90478C25.3871 1.79934 25.2286 1.69644 25.4688 1.53744C25.5744 1.46946 25.6631 1.3809 25.7289 1.2778C25.7946 1.17469 25.836 1.05948 25.85 0.940014C25.864 0.82055 25.8504 0.699652 25.8102 0.585569C25.7699 0.471487 25.7039 0.366907 25.6166 0.278967C25.4411 0.106493 25.2001 0.00629312 24.9461 0.000286424C24.6922 -0.00572027 24.446 0.0829551 24.2615 0.246915C24.1708 0.335552 24.1005 0.440829 24.0552 0.556151C24.0098 0.671473 23.9902 0.794353 23.9978 0.917092C24.0053 1.03983 24.0398 1.15978 24.099 1.26943C24.1582 1.37908 24.2409 1.47607 24.3419 1.55431C24.5432 1.69011 24.469 1.75211 24.359 1.86766C23.9 2.3514 23.4454 2.83767 22.9873 3.32351C22.4614 3.87979 21.9318 4.43227 21.4068 4.98939C21.2105 5.19773 21.1934 5.43601 21.4113 5.587C21.7438 5.8311 21.9605 6.18839 22.0145 6.58146C22.1266 6.98993 22.1515 7.41522 22.0876 7.83276C22.0237 8.2503 21.8723 8.6518 21.6421 9.01406C21.5965 9.0879 21.5286 9.14735 21.4469 9.1849C21.3653 9.22244 21.2736 9.23637 21.1835 9.22493C20.7227 9.16689 20.2899 8.98399 19.9381 8.6986C19.7521 8.57208 19.6582 8.44893 19.7988 8.20938C19.8837 8.06756 19.9198 7.90453 19.902 7.74269C19.8843 7.58084 19.8135 7.42815 19.6996 7.30559C19.5996 7.18023 19.4657 7.08238 19.3117 7.02228C19.1577 6.96218 18.9893 6.94205 18.8242 6.96398C18.6347 6.99264 18.4582 7.07277 18.3166 7.19448C18.175 7.31619 18.0745 7.47415 18.0274 7.64889C17.9721 7.84576 17.9928 8.05464 18.0857 8.23857C18.1787 8.42251 18.338 8.56963 18.5354 8.6539C18.737 8.73361 18.7245 8.83609 18.6773 8.95249C18.5826 9.19918 18.4649 9.43754 18.3256 9.66481C18.2186 9.86698 18.0647 10.0441 17.8753 10.1832C17.6859 10.3223 17.4658 10.4198 17.2311 10.4686C16.837 10.5568 16.4329 10.5993 16.0278 10.5952C15.6969 10.6027 15.366 10.5804 15.0397 10.5285C14.0456 10.3529 13.1404 9.87579 12.4629 9.17053C12.3003 9.00183 12.2186 8.83988 12.4036 8.63154C12.4683 8.54693 12.509 8.44823 12.5218 8.34476C12.5533 8.12599 12.495 7.90414 12.3588 7.72423C12.2225 7.5443 12.0185 7.41978 11.7881 7.37589C11.5577 7.33201 11.3181 7.37206 11.1179 7.48791C10.9178 7.60377 10.7721 7.78676 10.7103 7.99978C10.6606 8.20691 10.6901 8.42389 10.7938 8.61261C10.8974 8.80134 11.0686 8.94974 11.2772 9.03178C11.3462 9.04611 11.4107 9.07554 11.4653 9.11768C11.5199 9.15982 11.5632 9.21347 11.5916 9.27428C11.729 9.54166 11.8844 9.80061 12.0407 10.0579C12.7558 11.2333 13.478 12.4057 14.189 13.5819C14.2519 13.6857 14.3085 13.7755 14.4499 13.7696C14.781 13.7557 14.9359 14.0189 15.0877 14.204C15.1596 14.2921 14.8564 14.4073 14.7284 14.5136C14.7055 14.5321 14.6835 14.5532 14.661 14.5713C14.4149 14.7552 14.3592 14.9446 14.5061 15.1099C14.7024 15.3305 14.9058 15.2322 15.0873 15.101C16.2975 14.2737 17.6514 13.6497 19.0887 13.2568C20.1097 12.9558 21.1591 12.7474 22.2224 12.6343C23.4774 12.4787 24.7449 12.4307 26.0092 12.4909C27.2813 12.5522 28.5457 12.7125 29.7896 12.97C31.5753 13.3321 33.2761 13.996 34.8088 14.9294C35.011 15.0559 35.2234 15.0922 35.3707 14.8965C35.5284 14.6877 35.4156 14.4954 35.1982 14.382C35.0527 14.3048 35.0855 14.2407 35.1214 14.1159C35.2 13.8417 35.4579 13.6988 35.5953 13.4723C36.4319 12.0946 37.2663 10.7159 38.0984 9.33627C38.1307 9.25576 38.1887 9.18655 38.2644 9.13803C38.3401 9.08952 38.4298 9.06405 38.5215 9.06509C38.649 9.05644 38.7735 9.02388 38.8874 8.96932C39.0013 8.91476 39.1025 8.83931 39.1848 8.74743C39.2672 8.65555 39.3291 8.54911 39.3669 8.43438C39.4047 8.31966 39.4177 8.19898 39.405 8.07948M11.588 8.4017C11.469 8.42067 11.4025 8.33759 11.4047 8.22752C11.4074 8.10099 11.4905 8.04279 11.6342 8.04153C11.7357 8.05081 11.8139 8.09298 11.8139 8.21486C11.8139 8.35741 11.6899 8.38609 11.5893 8.4017M30.8128 7.58774C30.843 7.58319 30.8738 7.58518 30.9031 7.59354C30.9323 7.6019 30.9591 7.61641 30.9815 7.63598C31.0038 7.65554 31.0211 7.67964 31.032 7.70644C31.043 7.73323 31.0473 7.76201 31.0445 7.79059C31.0513 7.92302 30.9547 7.96899 30.8299 7.98459C30.6951 7.97532 30.5999 7.92513 30.6021 7.77752C30.6021 7.64551 30.6807 7.59322 30.8128 7.58774ZM24.9568 0.67456C25.0916 0.678356 25.1059 0.775778 25.1401 0.862656C25.101 0.969357 25.0444 1.05328 24.9083 1.04316C24.883 1.04256 24.8581 1.03694 24.8352 1.02666C24.8123 1.01638 24.7921 1.00167 24.7757 0.983512C24.7593 0.965349 24.7472 0.944138 24.7402 0.921274C24.7332 0.89841 24.7314 0.874409 24.7349 0.850847C24.7403 0.728543 24.8248 0.671186 24.9568 0.67456ZM18.9805 7.65395C19.1296 7.64636 19.1655 7.74715 19.1736 7.85428C19.1844 8.00231 19.0559 8.03183 18.9369 8.07147C18.8777 8.06232 18.8241 8.03301 18.7864 7.98914C18.7487 7.94527 18.7295 7.88991 18.7325 7.83361C18.7357 7.67672 18.8556 7.66027 18.9805 7.65395ZM15.7179 13.6722C15.6621 13.6706 15.6093 13.6484 15.5709 13.6104C15.5325 13.5724 15.5117 13.5217 15.5131 13.4693C15.5179 13.4264 15.5395 13.3867 15.5738 13.358C15.6082 13.3293 15.6526 13.3137 15.6986 13.3141C15.7476 13.323 15.7926 13.3458 15.8275 13.3794C15.8624 13.4131 15.8854 13.4559 15.8935 13.5022C15.854 13.5815 15.814 13.6836 15.7179 13.6709M16.8115 13.3618C16.7365 13.3934 16.7091 13.3474 16.6692 13.3006C16.2766 12.8367 16.2762 12.8367 16.8641 12.5786C16.891 12.5664 16.9207 12.5584 16.9463 12.544C17.1709 12.4196 17.3761 12.3053 17.4731 12.6777C17.5001 12.7806 17.6411 12.8574 17.7521 12.9683C17.426 13.1049 17.1188 13.2327 16.8115 13.3618ZM18.5048 12.5423C18.4015 12.5225 18.2776 12.4715 18.2618 12.3631C18.2593 12.3157 18.2766 12.2692 18.3103 12.2337C18.3439 12.1981 18.391 12.1765 18.4415 12.1733C18.5655 12.1666 18.6108 12.2775 18.6548 12.3492C18.631 12.4542 18.6337 12.5668 18.5048 12.5423ZM20.7411 12.1864C20.3863 12.2551 20.0342 12.3348 19.6811 12.4103C19.5662 12.4352 19.4566 12.4626 19.4638 12.2838C19.4608 12.2075 19.4398 12.1328 19.4022 12.065C19.3646 11.9973 19.3114 11.9384 19.2464 11.8924C19.1565 11.8157 19.1359 11.7469 19.2724 11.7115C19.718 11.5951 20.1658 11.485 20.6037 11.3741C20.76 11.3623 20.7321 11.4538 20.6958 11.5188C20.653 11.5954 20.6393 11.6835 20.6571 11.7684C20.6749 11.8533 20.7231 11.93 20.7937 11.9856C20.9006 12.0945 20.9257 12.1472 20.7411 12.1834M21.7742 11.7857C21.6763 11.7609 21.5375 11.7271 21.5473 11.5968C21.5534 11.5496 21.5757 11.5056 21.6109 11.4714C21.6461 11.4372 21.6922 11.4147 21.7423 11.4074C21.8285 11.4715 21.9408 11.5158 21.9219 11.6445C21.9103 11.7229 21.8671 11.8098 21.7742 11.7857ZM23.926 11.6968C24.0055 11.7811 23.8905 11.8064 23.8272 11.8123C23.4868 11.8439 23.1454 11.8684 22.8045 11.8967C22.7088 11.9047 22.6554 11.8566 22.6958 11.7815C22.8342 11.5255 22.6585 11.3324 22.5431 11.1139C23.0107 11.0059 23.4728 11.0367 23.9862 10.9579C23.8218 11.2434 23.7032 11.4602 23.926 11.6963M24.9415 11.5276C24.8823 11.5232 24.826 11.5013 24.7808 11.465C24.7357 11.4287 24.7039 11.3799 24.69 11.3256C24.6721 11.2341 24.7673 11.1692 24.8329 11.1215C24.8923 11.1249 24.9485 11.1479 24.9916 11.1865C25.0347 11.2251 25.0618 11.2768 25.0682 11.3324C25.0749 11.4074 25.026 11.5335 24.9415 11.5285M27.3463 11.2333C27.268 11.3013 27.2055 11.3838 27.1626 11.4755C27.1197 11.5672 27.0974 11.6662 27.097 11.7663C27.1073 11.8621 27.0489 11.8764 26.9654 11.868C26.8648 11.8574 26.7637 11.8511 26.6631 11.8435V11.852C26.4013 11.8334 26.1399 11.8098 25.878 11.7988C25.6984 11.7916 25.6925 11.7145 25.7702 11.6002C25.8173 11.5509 25.8513 11.4918 25.8696 11.4279C25.8879 11.3639 25.8898 11.2968 25.8753 11.232C25.7626 10.9549 25.9297 10.957 26.1322 10.9752C26.5136 11.0093 26.8958 11.0452 27.2762 11.0772C27.4172 11.089 27.4285 11.1375 27.344 11.2354M28.2253 11.8018C28.1152 11.7765 28.0061 11.7204 27.993 11.6175C27.9832 11.5378 28.0344 11.4184 28.1511 11.4188C28.2064 11.4203 28.259 11.4413 28.2984 11.4777C28.3378 11.5141 28.3611 11.5631 28.3636 11.6149C28.3683 11.6358 28.3684 11.6573 28.3639 11.6782C28.3595 11.6991 28.3505 11.719 28.3375 11.7365C28.3245 11.754 28.3079 11.7688 28.2886 11.78C28.2693 11.7913 28.2477 11.7987 28.2253 11.8018ZM30.767 11.8621C30.6311 12.0006 30.5261 12.1632 30.458 12.3403C30.4346 12.4289 30.3681 12.4049 30.2904 12.388C29.9311 12.3087 29.5673 12.2378 29.2044 12.1695C29.027 12.1362 28.9574 12.0759 29.0634 11.9038C29.1167 11.841 29.1543 11.7677 29.1733 11.6893C29.1923 11.611 29.1924 11.5297 29.1734 11.4513C29.1285 11.3201 29.2592 11.3745 29.3602 11.3602C29.782 11.461 30.2365 11.5681 30.6902 11.6799C30.7917 11.7048 30.8501 11.755 30.767 11.8621ZM31.5889 12.4795C31.4861 12.4626 31.3594 12.4146 31.3464 12.3007C31.3445 12.2533 31.3621 12.2071 31.3955 12.1716C31.429 12.1361 31.4757 12.114 31.526 12.1101C31.6361 12.1075 31.7088 12.2024 31.7466 12.3024C31.707 12.3791 31.7088 12.4998 31.5885 12.4795M33.6491 12.9928C33.3253 13.3723 33.3347 13.377 32.8577 13.1914C32.7194 13.137 32.5788 13.0872 32.4441 13.0265C32.3879 13.0012 32.2972 12.9991 32.3022 12.8882C32.383 12.7216 32.4634 12.5386 32.5613 12.3635C32.591 12.3104 32.6709 12.3298 32.727 12.3551C33.0145 12.4846 33.2993 12.6183 33.5881 12.7452C33.73 12.8072 33.7619 12.8608 33.6491 12.9928ZM34.4679 13.6536C34.4124 13.6527 34.3589 13.6333 34.3171 13.5989C34.2754 13.5644 34.2479 13.5172 34.2398 13.4655C34.2386 13.4183 34.2561 13.3724 34.2887 13.3364C34.3213 13.3005 34.3669 13.2771 34.4167 13.2707C34.5025 13.2707 34.5784 13.3652 34.6 13.4596C34.582 13.5469 34.5717 13.6616 34.4679 13.6536ZM35.9187 11.6006C35.7058 11.954 35.4812 12.3015 35.2795 12.66C35.1978 12.8047 35.1286 12.8249 34.9858 12.7368C33.1035 11.6359 31.0028 10.9054 28.8109 10.5893C27.5074 10.3652 26.1835 10.2622 24.8585 10.2818C22.2096 10.2683 19.5853 10.759 17.1439 11.7242C16.344 12.0296 15.5875 12.4271 14.8919 12.9076C14.8236 12.9573 14.7122 13.0801 14.6184 12.9232C14.171 12.1893 13.725 11.4545 13.2804 10.7187L13.3387 10.6643C13.7961 10.8793 14.2784 11.0441 14.776 11.1552C15.6922 11.3177 16.634 11.3033 17.5441 11.1131C18.0551 10.9739 18.4933 10.6622 18.7743 10.238C18.9946 9.98989 19.1601 9.70317 19.2612 9.39447C19.3416 9.11697 19.4566 9.1836 19.6277 9.31012C20.0222 9.60753 20.4909 9.80578 20.9895 9.88622C21.2337 9.96464 21.5006 9.95304 21.736 9.85377C21.9715 9.75449 22.158 9.57495 22.2579 9.35145C22.6468 8.75447 22.8495 8.06696 22.8428 7.36715C22.8362 6.66735 22.6204 5.98335 22.2202 5.393C22.1488 5.28123 22.138 5.22852 22.2318 5.13025C23.0816 4.24347 23.9269 3.35261 24.7677 2.45768C24.8926 2.32483 24.9622 2.35309 25.0705 2.4678C25.8909 3.3394 26.7143 4.20692 27.5408 5.07036C27.5601 5.08448 27.5761 5.10229 27.5877 5.12263C27.5992 5.14296 27.606 5.16536 27.6077 5.18835C27.6093 5.21133 27.6058 5.23439 27.5973 5.25599C27.5888 5.2776 27.5755 5.29727 27.5583 5.31371C26.9155 6.09562 26.9146 7.00531 26.987 7.92302C27.0672 8.50603 27.2914 9.06335 27.6418 9.55052C27.7135 9.64242 27.8087 9.7159 27.9186 9.76418C28.0285 9.81245 28.1495 9.83398 28.2706 9.82676C28.9343 9.86587 29.5896 9.67012 30.1072 9.27807C30.3928 9.08407 30.3767 9.08365 30.5137 9.37212C30.7563 9.95738 31.1742 10.4642 31.7169 10.8313C32.2153 11.0823 32.7753 11.2058 33.3406 11.1894C34.373 11.2821 35.412 11.0917 36.3314 10.6411C36.39 10.6247 36.4502 10.614 36.5111 10.6091C36.2955 10.9705 36.1096 11.286 35.92 11.5998M38.486 8.37344C38.4581 8.37666 38.4298 8.37386 38.4033 8.36527C38.3767 8.35667 38.3526 8.3425 38.3328 8.32383C38.313 8.30517 38.2979 8.28249 38.2888 8.25754C38.2797 8.2326 38.2768 8.20603 38.2803 8.17986C38.2804 8.15589 38.2856 8.13217 38.2956 8.11012C38.3056 8.08806 38.3202 8.0681 38.3385 8.0514C38.3568 8.03471 38.3785 8.02162 38.4023 8.01289C38.4261 8.00418 38.4515 8 38.477 8.00062C38.5187 7.99342 38.5618 8.0019 38.5969 8.02422C38.632 8.04655 38.6564 8.08093 38.6648 8.11997C38.6746 8.32114 38.6095 8.37302 38.4851 8.37302" fill="#6A1B2C"/>
<path d="M25.1275 3.47282C24.9663 3.26195 24.8019 3.28304 24.6505 3.48505C24.3671 3.86462 24.0859 4.24418 23.803 4.62038C23.7727 4.66475 23.7574 4.71668 23.759 4.76936C23.7607 4.82204 23.7793 4.87301 23.8124 4.9156C24.0741 5.39048 24.3365 5.86522 24.5997 6.33981C24.6213 6.39029 24.6559 6.43496 24.7003 6.46984C24.7447 6.50472 24.7977 6.52873 24.8544 6.53972C24.9281 6.5424 25.0009 6.52452 25.0638 6.48834C25.1266 6.45216 25.1766 6.3993 25.2074 6.33644C25.4769 5.85102 25.732 5.35927 25.9957 4.87131C26.0212 4.83013 26.0333 4.78277 26.0302 4.7352C26.0272 4.68762 26.0092 4.64195 25.9786 4.60393C25.6957 4.22647 25.414 3.84817 25.1252 3.47324M24.9456 5.69666C24.8877 5.78944 24.8391 5.71016 24.8041 5.64521C24.6733 5.40144 24.5399 5.15894 24.4039 4.9177C24.328 4.78359 24.4017 4.67942 24.4722 4.57567C24.8764 3.98524 24.8764 3.98524 25.295 4.55501C25.3498 4.63008 25.4513 4.68153 25.4338 4.84221C25.2874 5.10158 25.127 5.40482 24.9456 5.69666Z" fill="#6A1B2C"/>
<path d="M13.6581 58.9671C13.6302 58.7958 13.597 58.6297 13.5754 58.4585H14.2218C14.1724 57.8461 14.1113 57.2388 14.0614 56.6264C14.2716 56.6053 14.4818 56.5741 14.6974 56.5484L14.7967 58.4429C14.957 58.4378 15.1111 58.4323 15.2499 58.4222L15.3608 56.5379L15.9851 56.6053C15.9186 57.1958 15.8638 57.7993 15.8086 58.396C16.0682 58.3758 16.2838 58.3496 16.4666 58.3235L16.516 58.7908C15.5697 58.9195 14.6142 58.9784 13.6581 58.9671ZM13.6801 55.7749H16.4221V56.2528H13.6801V55.7749ZM17.0411 59.9999V57.628H16.3116V57.1139H17.0411V55.3743H17.6878V59.9987L17.0411 59.9999Z" fill="#6A1B2C" stroke="#F9EEE4" stroke-width="0.354"/>
<path d="M19.8168 58.9208C19.7835 58.7492 19.7561 58.5885 19.7269 58.4168H20.3957L20.2412 56.6215C20.4514 56.6055 20.6665 56.5743 20.8767 56.5485L20.9818 58.4012C21.1754 58.4012 21.3636 58.3911 21.5347 58.386C21.5734 57.7682 21.6174 57.1554 21.6506 56.538L22.27 56.6055C22.2147 57.187 22.1537 57.7682 22.093 58.3498C22.3322 58.337 22.5704 58.3109 22.8063 58.2718L22.8561 58.7492C21.848 58.8682 20.8328 58.9255 19.8168 58.9208ZM19.894 55.7751H22.6414V56.2529H19.894V55.7751ZM23.2056 55.3752H23.8523V60.0001H23.2056V55.3752Z" fill="#6A1B2C" stroke="#F9EEE4" stroke-width="0.354"/>
<path d="M26.3793 58.2716L26.0586 57.7938C26.6026 57.68 27.0953 57.4098 27.468 57.0207L26.1911 57.1452L26.0806 56.6471L27.7874 56.5433C27.83 56.4387 27.8632 56.3309 27.8866 56.2211H26.302V55.718H28.5846C28.5766 56.3146 28.3546 56.8912 27.9544 57.3546C27.5542 57.818 26.9993 58.1411 26.3793 58.2716ZM28.3308 59.948C27.2583 59.948 26.6335 59.5951 26.6335 59.0447C26.6335 58.4791 27.2583 58.1211 28.3308 58.1211C29.4137 58.1211 30.0443 58.4791 30.0443 59.0447C30.0443 59.5951 29.4137 59.948 28.3308 59.948ZM27.2915 59.0434C27.2915 59.3032 27.6836 59.4588 28.3308 59.4588C28.9996 59.4588 29.3809 59.3032 29.3809 59.0434C29.3809 58.7689 28.9996 58.6078 28.3308 58.6078C27.6836 58.609 27.2915 58.7701 27.2915 59.0434ZM29.3701 55.3743H30.0223V58.0785H29.3701V55.3743Z" fill="#6A1B2C" stroke="#F9EEE4" stroke-width="0.354"/>
<path d="M32.8326 57.9136H32.3521V55.6505H34.5394V56.1334H32.997V57.426C33.6116 57.4363 34.2258 57.3928 34.8318 57.2961C34.8542 57.4467 34.8821 57.5973 34.9153 57.7529C34.229 57.8748 33.5309 57.9286 32.8326 57.9136ZM32.8825 58.2088H36.1774V59.943H32.8807L32.8825 58.2088ZM35.5361 58.6761H33.5279V59.4652H35.5343L35.5361 58.6761ZM35.5361 57.965V56.9372H34.3121V56.4497H35.5343V55.3743H36.1752V57.9646L35.5361 57.965Z" fill="#6A1B2C" stroke="#F9EEE4" stroke-width="0.354"/>
<path d="M9.28028 43.4231V45.3243C9.27558 45.395 9.29894 45.4649 9.34585 45.5204C9.40751 45.5767 9.48574 45.6143 9.57043 45.6284V45.7638H7.65167V45.6284C7.73585 45.6119 7.81356 45.574 7.87625 45.5187C7.92166 45.4632 7.94401 45.3941 7.93913 45.3243V40.4401C7.94442 40.369 7.92208 40.2984 7.87625 40.2415C7.81362 40.1861 7.7359 40.148 7.65167 40.1314V39.9965H11.4851C11.842 39.9888 12.1987 40.0171 12.5492 40.0808C12.7997 40.1322 13.0364 40.2314 13.2444 40.3722C13.4547 40.5195 13.6219 40.7144 13.7304 40.9386C13.8474 41.18 13.9073 41.4423 13.906 41.7075C13.9137 42.0728 13.7972 42.4309 13.5732 42.7298C13.3844 42.9785 13.1174 43.1655 12.8097 43.2645C12.3802 43.3851 11.9326 43.4386 11.4847 43.4231H9.28028ZM9.28028 42.4725H11.3279C11.6205 42.4913 11.9138 42.4494 12.1872 42.3498C12.2977 42.2909 12.3864 42.2018 12.4414 42.0942C12.5049 41.9747 12.5379 41.8431 12.5379 41.7096C12.5379 41.5761 12.5049 41.4444 12.4414 41.3249C12.3859 41.2184 12.2972 41.1301 12.1872 41.0719C11.914 40.9718 11.6205 40.9298 11.3279 40.9492H9.28028V42.4725Z" fill="#6A1B2C"/>
<path d="M20.9985 40.44V43.6722C21.0352 44.1539 20.9095 44.6342 20.6392 45.045C20.2071 45.5916 19.3147 45.8649 17.9618 45.8649C17.1845 45.9075 16.4092 45.7543 15.7161 45.4212C15.4261 45.2631 15.2038 45.0151 15.0873 44.7198C14.9657 44.3827 14.9077 44.0281 14.9162 43.6722V40.44C14.9215 40.3688 14.8991 40.2983 14.8533 40.2414C14.7908 40.1858 14.713 40.1477 14.6287 40.1313V39.9963H16.5457V40.1313C16.4611 40.1456 16.3829 40.1832 16.3211 40.2393C16.2741 40.2965 16.2511 40.3679 16.2564 40.44V43.3171C16.2489 43.5641 16.2686 43.8112 16.3153 44.0543C16.3488 44.2037 16.4248 44.3417 16.5353 44.4537C16.7377 44.6154 16.9728 44.7369 17.2266 44.811C17.4803 44.8851 17.7474 44.9102 18.0117 44.8847C18.2769 44.9105 18.545 44.8856 18.7997 44.8115C19.0544 44.7375 19.2906 44.6157 19.4939 44.4537C19.6021 44.3408 19.6767 44.203 19.7099 44.0543C19.7562 43.8111 19.7757 43.5641 19.7683 43.3171V40.44C19.7737 40.3688 19.7512 40.2981 19.705 40.2414C19.6425 40.1858 19.5647 40.1477 19.4804 40.1313V39.9963H21.2896V40.1313C21.2053 40.1477 21.1275 40.1858 21.065 40.2414C21.0179 40.2978 20.9942 40.3684 20.9985 40.44Z" fill="#6A1B2C"/>
<path d="M23.9422 43.4231V45.3243C23.9374 45.395 23.9606 45.4648 24.0073 45.5204C24.0691 45.5765 24.1473 45.6141 24.2319 45.6284V45.7638H22.3136V45.6284C22.3978 45.6119 22.4755 45.574 22.5382 45.5187C22.5832 45.4631 22.6054 45.3941 22.6006 45.3243V40.4401C22.606 40.369 22.5838 40.2985 22.5382 40.2415C22.4755 40.1861 22.3978 40.148 22.3136 40.1314V39.9965H26.1471C26.5039 39.9888 26.8606 40.0171 27.2111 40.0808C27.4617 40.1322 27.6983 40.2314 27.9064 40.3722C28.1165 40.5196 28.2837 40.7145 28.3923 40.9386C28.5092 41.18 28.5689 41.4423 28.5675 41.7075C28.5752 42.0728 28.4586 42.4309 28.2347 42.7298C28.046 42.9786 27.7789 43.1656 27.4711 43.2645C27.0417 43.3851 26.5941 43.4386 26.1462 43.4231H23.9422ZM23.9422 42.4725H25.9894C26.2819 42.4913 26.5753 42.4494 26.8486 42.3498C26.9593 42.291 27.0482 42.2018 27.1033 42.0942C27.1668 41.9747 27.1999 41.8431 27.1999 41.7096C27.1999 41.5761 27.1668 41.4444 27.1033 41.3249C27.0476 41.2183 26.9588 41.1301 26.8486 41.0719C26.5754 40.9717 26.282 40.9298 25.9894 40.9492H23.9422V42.4725Z" fill="#6A1B2C"/>
<path d="M31.0387 43.4231V45.3243C31.034 45.395 31.0574 45.4649 31.1043 45.5204C31.1661 45.5765 31.2442 45.6141 31.3288 45.6284V45.7638H29.4101V45.6284C29.4944 45.6122 29.5721 45.5742 29.6347 45.5187C29.6801 45.4632 29.7024 45.3941 29.6975 45.3243V40.4401C29.7028 40.369 29.6805 40.2984 29.6347 40.2415C29.5722 40.1859 29.4944 40.1478 29.4101 40.1314V39.9965H33.244C33.6009 39.9888 33.9576 40.0171 34.308 40.0808C34.5586 40.1323 34.7952 40.2315 35.0033 40.3722C35.2135 40.5196 35.3806 40.7145 35.4893 40.9386C35.6059 41.1801 35.6657 41.4423 35.6645 41.7075C35.6722 42.0728 35.5556 42.4309 35.3316 42.7298C35.1428 42.9785 34.8758 43.1655 34.5681 43.2645C34.1386 43.385 33.691 43.4386 33.2431 43.4231H31.0387ZM31.0387 42.4725H33.0864C33.3789 42.4913 33.6722 42.4494 33.9456 42.3498C34.0561 42.2908 34.145 42.2017 34.2002 42.0942C34.2635 41.9747 34.2964 41.843 34.2964 41.7096C34.2964 41.5761 34.2635 41.4445 34.2002 41.3249C34.1444 41.2185 34.0556 41.1303 33.9456 41.0719C33.6724 40.9717 33.3789 40.9298 33.0864 40.9492H31.0387V42.4725Z" fill="#6A1B2C"/>
<path d="M39.9084 43.3488V45.3196C39.9031 45.3911 39.9261 45.462 39.9731 45.5186C40.0359 45.5737 40.1136 45.6117 40.1977 45.6283V45.7636H38.2709V45.6283C38.3563 45.6112 38.4354 45.5734 38.5004 45.5186C38.5491 45.4628 38.5732 45.3915 38.5677 45.3196V43.3488L36.5834 40.7268C36.4666 40.5622 36.331 40.4101 36.1792 40.273C36.0801 40.1947 35.9588 40.1455 35.8302 40.1313V39.9963H38.2556V40.1313C38.0544 40.1625 37.9539 40.2498 37.9542 40.3932C37.9905 40.5151 38.0532 40.6287 38.1384 40.7268L39.2455 42.2699L40.3841 40.7268C40.4727 40.6293 40.5359 40.5138 40.5687 40.3894C40.5689 40.3578 40.5617 40.3265 40.5476 40.2977C40.5336 40.2689 40.513 40.2434 40.4874 40.2228C40.4251 40.1728 40.3486 40.1411 40.2673 40.1317V39.9968H42.6424V40.1317C42.514 40.1461 42.3929 40.1953 42.2939 40.2734C42.1419 40.4104 42.0063 40.5625 41.8896 40.7272L39.9084 43.3488Z" fill="#6A1B2C"/>
<path d="M2.55429 50.6247L1.6286 51.3256V52.8722C1.62361 52.9443 1.64676 53.0156 1.69373 53.0729C1.75575 53.1287 1.83382 53.1662 1.9183 53.1809V53.3158H0V53.1809C0.0841638 53.1641 0.161835 53.1261 0.224573 53.0708C0.270407 53.0139 0.292745 52.9433 0.287454 52.8722V47.9884C0.29234 47.9186 0.269989 47.8495 0.224573 47.794C0.161835 47.7387 0.0841638 47.7006 0 47.6839L0 47.5489H1.91696V47.6839C1.83224 47.6979 1.75397 47.7355 1.69238 47.7919C1.64691 47.8481 1.62444 47.9179 1.62905 47.9884V50.0068L4.1582 48.0668C4.27542 47.977 4.33336 47.9053 4.33336 47.8517C4.33336 47.7699 4.24668 47.7138 4.07241 47.6831V47.5481H6.58314V47.6831C6.50498 47.6946 6.42922 47.7175 6.35856 47.751C6.31365 47.7763 6.1834 47.8724 5.96736 48.0382L5.62062 48.3085L3.53209 49.8837L5.89999 52.5592C6.0428 52.7318 6.20152 52.8923 6.37428 53.0387C6.48197 53.1142 6.60818 53.1629 6.74124 53.1804V53.3154H4.33965V53.1804C4.49895 53.1492 4.5786 53.0957 4.5786 53.0198C4.52936 52.9031 4.45593 52.7967 4.36256 52.7068L2.55429 50.6247Z" fill="#6A1B2C"/>
<path d="M7.6759 52.8726V47.9884C7.68079 47.9186 7.65844 47.8495 7.61302 47.794C7.55028 47.7387 7.47261 47.7006 7.38845 47.6839V47.549H9.30541V47.6839C9.22076 47.6981 9.14255 47.7357 9.08083 47.7919C9.03536 47.8482 9.01289 47.9179 9.0175 47.9884V52.8726C9.01242 52.9448 9.03576 53.0162 9.08308 53.0733C9.14497 53.1293 9.2231 53.1669 9.30765 53.1813V53.3163H7.388V53.1813C7.47216 53.1646 7.54984 53.1265 7.61257 53.0712C7.65857 53.0144 7.68107 52.9438 7.6759 52.8726Z" fill="#6A1B2C"/>
<path d="M11.9239 49.3658V52.8726C11.9186 52.9438 11.941 53.0143 11.9868 53.0712C12.0494 53.1267 12.1271 53.1648 12.2114 53.1813V53.3163H10.4076V53.1813C10.4918 53.1646 10.5694 53.1265 10.6322 53.0712C10.6778 53.0143 10.7 52.9437 10.6946 52.8726V47.9884C10.6996 47.9186 10.6774 47.8495 10.6322 47.794C10.5694 47.7387 10.4918 47.7006 10.4076 47.6839V47.549H12.4952V47.6839C12.3663 47.7155 12.3021 47.7801 12.3021 47.8783C12.3119 47.9655 12.3569 48.0457 12.4279 48.1027L15.8158 51.4104V47.9884C15.8209 47.9186 15.7985 47.8494 15.7529 47.794C15.6901 47.7387 15.6125 47.7006 15.5283 47.6839V47.549H17.3325V47.6839C17.2483 47.7004 17.1706 47.7385 17.108 47.794C17.0622 47.8493 17.0397 47.9185 17.0446 47.9884V52.8726C17.0392 52.9438 17.0617 53.0145 17.108 53.0712C17.1706 53.1267 17.2483 53.1648 17.3325 53.1813V53.3163H15.3972V53.1813C15.5235 53.1557 15.5865 53.0951 15.5862 52.9995C15.5862 52.943 15.513 52.8447 15.3662 52.7043L11.9239 49.3658Z" fill="#6A1B2C"/>
<path d="M23.9017 51.2412H22.385C22.3098 51.236 22.2353 51.257 22.1757 51.3003C22.118 51.3596 22.0784 51.4325 22.0611 51.5111H21.9183V50.1675H22.062C22.0782 50.2473 22.1179 50.3212 22.1766 50.3809C22.2366 50.4232 22.311 50.4436 22.3859 50.4382H25.2972V50.5732C25.213 50.5897 25.1353 50.6278 25.0727 50.6833C25.0258 50.7396 25.003 50.8102 25.0084 50.8815V52.0624C25.003 52.1335 25.025 52.2042 25.0704 52.2614C25.1327 52.3171 25.2106 52.3549 25.295 52.3707V52.4765C24.2721 53.0632 23.1027 53.3867 21.9044 53.4145C21.0394 53.4504 20.1859 53.2174 19.4763 52.7515C19.0917 52.4845 18.7828 52.133 18.5766 51.7277C18.3704 51.3225 18.2733 50.876 18.2937 50.4273C18.2761 50.0084 18.3619 49.5914 18.5446 49.2089C18.7272 48.8263 19.0017 48.4887 19.3465 48.2224C20.105 47.6753 21.0461 47.3996 22.0014 47.4447C22.3344 47.443 22.6667 47.4736 22.9931 47.5358C23.3547 47.6105 23.7092 47.7127 24.0531 47.8416C24.1909 47.9017 24.3382 47.9403 24.4892 47.9559C24.5725 47.9479 24.6504 47.9135 24.7102 47.8584L24.836 47.9221L24.1137 49.3038L23.9835 49.2409C23.9859 49.1723 23.9721 49.104 23.943 49.041C23.8997 48.9818 23.8447 48.931 23.7809 48.8913C23.5361 48.7365 23.2634 48.6247 22.976 48.5615C22.6497 48.4741 22.3124 48.4281 21.9731 48.4248C21.3929 48.4048 20.825 48.5849 20.3764 48.9309C20.1429 49.1163 19.9572 49.349 19.8334 49.6114C19.7095 49.8739 19.6507 50.1593 19.6613 50.4463C19.6515 50.7253 19.7092 51.0027 19.83 51.2578C19.9508 51.5129 20.1316 51.7389 20.3589 51.919C20.8339 52.2781 21.4326 52.4613 22.0418 52.4339C22.3797 52.434 22.7164 52.3972 23.0452 52.3243C23.3432 52.262 23.6304 52.1609 23.8986 52.024L23.9017 51.2412Z" fill="#6A1B2C"/>
<path d="M26.6344 52.8726V47.9939C26.6397 47.9227 26.6174 47.8521 26.5715 47.7952C26.5089 47.7399 26.4312 47.7018 26.347 47.6852V47.5502H29.7735C30.361 47.5255 30.9481 47.6073 31.5027 47.791C32.0669 48.0148 32.5225 48.4274 32.781 48.9487C33.0097 49.4129 33.1222 49.9202 33.1098 50.4315C33.1395 50.8551 33.0671 51.2795 32.898 51.6731C32.7288 52.0668 32.4673 52.4195 32.1329 52.7051C31.8544 52.9271 31.5266 53.0879 31.1735 53.1758C30.7154 53.2802 30.2448 53.3278 29.7735 53.3175H26.3447V53.1825C26.4289 53.1659 26.5066 53.1278 26.5693 53.0725C26.6162 53.0155 26.6394 52.9444 26.6344 52.8726ZM27.9751 52.3665H29.6603C30.0764 52.3894 30.4922 52.3184 30.873 52.1594C31.4527 51.8639 31.7427 51.2875 31.743 50.4303C31.7799 49.9176 31.613 49.4103 31.2746 49.0065C31.1051 48.8267 30.8882 48.6919 30.6458 48.6155C30.3251 48.5287 29.992 48.4897 29.6585 48.5H27.9733L27.9751 52.3665Z" fill="#6A1B2C"/>
<path d="M37.4476 47.4477C38.3772 47.4009 39.2902 47.693 39.996 48.263C40.5288 48.7373 40.8711 49.3696 40.9654 50.0533C41.0596 50.737 40.9 51.4303 40.5135 52.0165C39.8921 52.9519 38.8732 53.4194 37.4566 53.4192C36.5311 53.4648 35.6227 53.1725 34.9216 52.6035C34.5867 52.3141 34.3257 51.9574 34.158 51.5601C34.0047 51.2015 33.9268 50.8184 33.9285 50.432C33.9233 49.8726 34.0871 49.3233 34.401 48.8479C35.0023 47.9313 36.0178 47.4646 37.4476 47.4477ZM37.4521 48.4279C36.9157 48.4111 36.3926 48.5861 35.9883 48.9175C35.7691 49.1126 35.5945 49.3475 35.4752 49.6081C35.3558 49.8686 35.2943 50.1492 35.2943 50.4328C35.2943 50.7164 35.3558 50.997 35.4752 51.2576C35.5945 51.5181 35.7691 51.7531 35.9883 51.9481C36.4043 52.2647 36.9234 52.4374 37.4588 52.4374C37.9942 52.4374 38.5134 52.2647 38.9293 51.9481C39.1621 51.7514 39.3438 51.5073 39.4607 51.2345C39.5682 50.988 39.6234 50.7241 39.6233 50.4577C39.6383 50.1685 39.5837 49.8799 39.4636 49.6132C39.3435 49.3465 39.1608 49.1087 38.9293 48.9175C38.5172 48.5903 37.9917 48.4161 37.4521 48.4279Z" fill="#6A1B2C"/>
<path d="M45.7357 53.3163L43.4702 49.3321V52.8726C43.4648 52.9438 43.4873 53.0145 43.5335 53.0712C43.5961 53.1267 43.6738 53.1648 43.7581 53.1813V53.3163H41.9539V53.1813C42.038 53.1646 42.1157 53.1265 42.1784 53.0712C42.2243 53.0143 42.2466 52.9438 42.2413 52.8726V47.9884C42.2462 47.9186 42.2238 47.8495 42.1784 47.794C42.1157 47.7387 42.038 47.7006 41.9539 47.6839V47.549H44.3213V47.6839C44.2616 47.6911 44.2068 47.7189 44.1677 47.762C44.1286 47.805 44.1079 47.8602 44.1098 47.9167C44.1137 47.9854 44.1354 48.0521 44.1731 48.1111L45.8484 51.092L47.5462 48.1617C47.605 48.076 47.6433 47.9793 47.6585 47.8783C47.6585 47.7632 47.5835 47.6987 47.4339 47.6839V47.549H49.7564V47.6839C49.6723 47.7006 49.5946 47.7387 49.5319 47.794C49.4864 47.8495 49.4641 47.9186 49.469 47.9884V52.8726C49.4637 52.9438 49.486 53.0143 49.5319 53.0712C49.5946 53.1265 49.6723 53.1646 49.7564 53.1813V53.3163H47.8399V53.1813C47.9243 53.1665 48.0023 53.129 48.0645 53.0733C48.1113 53.016 48.1343 52.9447 48.1292 52.8726V49.3321L45.7357 53.3163Z" fill="#6A1B2C"/>
</svg>
