<svg width="35" height="29" viewBox="0 0 35 29" fill="none" xmlns="http://www.w3.org/2000/svg">
<path d="M22.1534 18.3875C22.392 18.6268 22.6773 18.7401 23.0093 18.7273C23.3402 18.7135 23.625 18.5869 23.8636 18.3476C24.1023 18.1083 24.2216 17.8221 24.2216 17.4892C24.2216 17.1574 24.1023 16.8718 23.8636 16.6325L21.3977 14.1994C21.6894 13.7474 21.9084 13.2688 22.0548 12.7635C22.2001 12.2583 22.2727 11.7265 22.2727 11.1681C22.2727 9.59924 21.7228 8.27609 20.623 7.19863C19.522 6.12224 18.2159 5.58405 16.7045 5.58405C15.1932 5.58405 13.8876 6.12224 12.7877 7.19863C11.6868 8.27609 11.1364 9.59924 11.1364 11.1681C11.1364 12.7369 11.6868 14.0601 12.7877 15.1376C13.8876 16.2139 15.1932 16.7521 16.7045 16.7521C17.2614 16.7521 17.7853 16.692 18.2764 16.5719C18.7664 16.4527 19.25 16.2469 19.7273 15.9544L22.1534 18.3875ZM16.7045 14.359C15.8295 14.359 15.0808 14.0463 14.4582 13.4209C13.8345 12.7965 13.5227 12.0456 13.5227 11.1681C13.5227 10.2906 13.8345 9.53915 14.4582 8.91373C15.0808 8.28938 15.8295 7.97721 16.7045 7.97721C17.553 7.97721 18.2955 8.28938 18.9318 8.91373C19.5682 9.53915 19.8864 10.2906 19.8864 11.1681C19.8864 12.0456 19.5751 12.7965 18.9525 13.4209C18.3289 14.0463 17.5795 14.359 16.7045 14.359ZM4.77273 23.9316C3.89773 23.9316 3.14894 23.6195 2.52636 22.9951C1.90273 22.3697 1.59091 21.6182 1.59091 20.7407V3.19088C1.59091 2.31339 1.90273 1.56194 2.52636 0.936524C3.14894 0.312175 3.89773 0 4.77273 0H30.2273C31.1023 0 31.8516 0.312175 32.4752 0.936524C33.0978 1.56194 33.4091 2.31339 33.4091 3.19088V20.7407C33.4091 21.6182 33.0978 22.3697 32.4752 22.9951C31.8516 23.6195 31.1023 23.9316 30.2273 23.9316H4.77273ZM4.77273 20.7407H30.2273V3.19088H4.77273V20.7407ZM1.59091 28.718C1.14015 28.718 0.762576 28.5648 0.458182 28.2585C0.152727 27.9532 0 27.5746 0 27.1225C0 26.6705 0.152727 26.2918 0.458182 25.9866C0.762576 25.6802 1.14015 25.5271 1.59091 25.5271H33.4091C33.8598 25.5271 34.2374 25.6802 34.5418 25.9866C34.8473 26.2918 35 26.6705 35 27.1225C35 27.5746 34.8473 27.9532 34.5418 28.2585C34.2374 28.5648 33.8598 28.718 33.4091 28.718H1.59091ZM4.77273 3.19088V20.7407V3.19088Z" fill="#6A1B2C"/>
</svg>
