<svg width="35" height="31" viewBox="0 0 35 31" fill="none" xmlns="http://www.w3.org/2000/svg">
<path d="M0 3.0882C0 2.26916 0.325363 1.48366 0.904512 0.904512C1.48366 0.325362 2.26916 0 3.0882 0H29.8526C30.6716 0 31.4571 0.325362 32.0363 0.904512C32.6154 1.48366 32.9408 2.26916 32.9408 3.0882V10.1005C32.2919 9.8201 31.5883 9.68922 30.882 9.71753V3.0882C30.882 2.81518 30.7735 2.55335 30.5805 2.3603C30.3874 2.16725 30.1256 2.0588 29.8526 2.0588H3.0882C2.81518 2.0588 2.55335 2.16725 2.3603 2.3603C2.16725 2.55335 2.0588 2.81518 2.0588 3.0882V21.6174C2.0588 21.8904 2.16725 22.1522 2.3603 22.3453C2.55335 22.5383 2.81518 22.6468 3.0882 22.6468H8.23519V19.5586C8.23519 18.7395 8.56055 17.954 9.1397 17.3749C9.71885 16.7957 10.5043 16.4704 11.3234 16.4704H21.6174C22.4364 16.4704 23.2219 16.7957 23.8011 17.3749C24.3802 17.954 24.7056 18.7395 24.7056 19.5586V21.7697C23.8594 21.7965 23.1862 22.058 22.6468 22.4224V19.5586C22.6468 19.2856 22.5383 19.0237 22.3453 18.8307C22.1522 18.6376 21.8904 18.5292 21.6174 18.5292H11.3234C11.0504 18.5292 10.7885 18.6376 10.5955 18.8307C10.4024 19.0237 10.294 19.2856 10.294 19.5586V22.6468H22.3441C21.6956 23.1738 21.2633 23.8326 20.9442 24.3144C20.8598 24.4471 20.772 24.5776 20.6806 24.7056H3.0882C2.26916 24.7056 1.48366 24.3802 0.904512 23.8011C0.325363 23.2219 0 22.4364 0 21.6174V3.0882ZM16.4704 14.4116C17.8355 14.4116 19.1446 13.8693 20.1099 12.9041C21.0751 11.9388 21.6174 10.6297 21.6174 9.26459C21.6174 7.89952 21.0751 6.59036 20.1099 5.62512C19.1446 4.65987 17.8355 4.1176 16.4704 4.1176C15.1053 4.1176 13.7962 4.65987 12.8309 5.62512C11.8657 6.59036 11.3234 7.89952 11.3234 9.26459C11.3234 10.6297 11.8657 11.9388 12.8309 12.9041C13.7962 13.8693 15.1053 14.4116 16.4704 14.4116ZM16.4704 12.3528C15.6513 12.3528 14.8658 12.0274 14.2867 11.4483C13.7075 10.8691 13.3822 10.0836 13.3822 9.26459C13.3822 8.44555 13.7075 7.66006 14.2867 7.08091C14.8658 6.50176 15.6513 6.17639 16.4704 6.17639C17.2894 6.17639 18.0749 6.50176 18.6541 7.08091C19.2332 7.66006 19.5586 8.44555 19.5586 9.26459C19.5586 10.0836 19.2332 10.8691 18.6541 11.4483C18.0749 12.0274 17.2894 12.3528 16.4704 12.3528ZM28.4835 14.9572L29.3049 13.0198C29.6899 12.1099 30.6123 11.6157 31.5181 11.8051L31.7117 11.8546L32.7411 12.184C33.7622 12.5113 34.5425 13.3842 34.7957 14.4816C35.3949 17.0901 34.6763 20.2668 32.6361 24.0097C30.5999 27.7485 28.3702 29.9946 25.9429 30.7523C25 31.0467 23.9871 30.8346 23.2253 30.1943L23.0256 30.009L22.2433 29.2246C21.9146 28.8863 21.7023 28.452 21.6371 27.9848C21.572 27.5176 21.6573 27.0418 21.8809 26.6264L21.9962 26.437L23.1738 24.7076C23.3879 24.3812 23.6951 24.1264 24.0555 23.9763C24.4159 23.8262 24.813 23.7876 25.1956 23.8656L25.4014 23.9212L27.5776 24.6479C28.4444 23.9891 29.169 23.1656 29.7476 22.1671C30.2437 21.3127 30.5711 20.448 30.7214 19.5709L30.7831 19.1304L28.9735 17.4113C28.6814 17.1266 28.4737 16.7667 28.3734 16.3714C28.2732 15.9761 28.2842 15.5607 28.4052 15.1713L28.4814 14.9572H28.4835Z" fill="#6A1B2C"/>
</svg>
