<svg width="38" height="30" viewBox="0 0 38 30" fill="none" xmlns="http://www.w3.org/2000/svg">
<path d="M33.0113 5.61562C32.8688 5.05687 32.4637 4.635 32.0006 4.50562C31.1812 4.275 27.1875 3.75 18.75 3.75C10.3125 3.75 6.3225 4.275 5.49563 4.50562C5.03813 4.63312 4.63313 5.055 4.48875 5.61562C4.28438 6.41062 3.75 9.7425 3.75 15C3.75 20.2575 4.28438 23.5875 4.48875 24.3863C4.63125 24.9431 5.03625 25.365 5.4975 25.4925C6.3225 25.725 10.3125 26.25 18.75 26.25C27.1875 26.25 31.1794 25.725 32.0044 25.4944C32.4619 25.3669 32.8669 24.945 33.0113 24.3844C33.2156 23.5894 33.75 20.25 33.75 15C33.75 9.75 33.2156 6.4125 33.0113 5.61562ZM36.6431 4.68375C37.5 8.025 37.5 15 37.5 15C37.5 15 37.5 21.975 36.6431 25.3163C36.1669 27.1631 34.7738 28.6163 33.0094 29.1075C29.805 30 18.75 30 18.75 30C18.75 30 7.70062 30 4.49062 29.1075C2.71875 28.6087 1.3275 27.1575 0.856875 25.3163C5.58794e-08 21.975 0 15 0 15C0 15 5.58794e-08 8.025 0.856875 4.68375C1.33312 2.83688 2.72625 1.38375 4.49062 0.8925C7.70062 -3.35276e-07 18.75 0 18.75 0C18.75 0 29.805 -3.35276e-07 33.0094 0.8925C34.7812 1.39125 36.1725 2.8425 36.6431 4.68375ZM15 21.5625V8.4375L26.25 15L15 21.5625Z" fill="#6A1B2C"/>
</svg>
